<?xml version="1.0" standalone="no"?>
<!DOCTYPE svg PUBLIC "-//W3C//DTD SVG 20010904//EN"
 "http://www.w3.org/TR/2001/REC-SVG-20010904/DTD/svg10.dtd">
<svg version="1.0" xmlns="http://www.w3.org/2000/svg"
 width="700.000000pt" height="700.000000pt" viewBox="0 0 700.000000 700.000000"
 preserveAspectRatio="xMidYMid meet">
<metadata>
Created by potrace 1.11, written by Peter Selinger 2001-2013
</metadata>
<g transform="translate(0.000000,700.000000) scale(0.100000,-0.100000)"
fill="#000000" stroke="none">
<path d="M3289 6576 c-2 -2 -42 -6 -89 -10 -100 -7 -153 -14 -250 -31 -8 -1
-35 -6 -60 -10 -145 -24 -482 -124 -605 -181 -30 -13 -56 -24 -59 -24 -14 0
-250 -121 -341 -175 -760 -447 -1303 -1198 -1494 -2065 -11 -52 -23 -111 -26
-130 -3 -19 -10 -60 -15 -90 -37 -213 -44 -593 -15 -805 56 -414 169 -777 347
-1115 57 -109 182 -310 192 -310 5 0 510 229 674 306 41 19 76 34 78 34 2 0
43 19 91 41 88 42 309 142 468 214 28 13 79 36 115 53 339 156 552 252 561
252 14 0 -3 23 -77 106 -34 38 -133 150 -219 249 -87 99 -188 214 -224 254
-101 115 -150 170 -221 251 -36 41 -85 97 -110 125 -25 28 -61 69 -80 91 -19
23 -65 74 -102 115 -36 41 -76 86 -88 102 l-21 27 864 0 864 0 44 48 c80 87
201 221 221 244 25 29 156 173 233 258 33 36 84 92 113 125 l54 60 -7 -40 c-3
-22 -8 -51 -10 -65 -2 -14 -13 -83 -25 -155 -11 -71 -23 -141 -25 -155 -2 -14
-14 -83 -25 -155 -12 -71 -23 -141 -26 -155 -14 -80 -32 -197 -39 -250 -3 -19
-9 -57 -15 -85 -5 -27 -12 -68 -15 -90 -6 -45 -8 -52 -29 -180 -9 -49 -18
-108 -21 -130 -11 -73 -16 -100 -20 -115 -2 -8 -6 -35 -9 -60 -4 -25 -8 -56
-10 -70 -6 -34 -36 -218 -42 -255 -3 -16 -9 -55 -14 -85 -5 -30 -12 -73 -16
-95 -3 -22 -16 -103 -29 -180 -14 -77 -26 -156 -29 -175 -2 -19 -14 -91 -25
-160 -11 -69 -23 -143 -27 -165 -3 -22 -8 -47 -9 -55 -2 -8 -4 -19 -4 -23 -1
-4 -16 9 -33 30 -18 21 -65 74 -104 118 -39 44 -84 95 -100 114 -16 19 -45 53
-65 75 -20 23 -71 80 -113 128 l-77 87 -52 -23 c-345 -154 -340 -151 -322
-164 6 -4 35 -36 65 -72 30 -36 57 -67 61 -70 3 -3 91 -102 194 -220 104 -118
194 -220 199 -226 6 -6 36 -39 66 -74 30 -35 64 -74 75 -86 11 -12 41 -46 67
-75 25 -30 54 -63 65 -75 83 -95 140 -159 148 -168 9 -10 83 -94 170 -194 34
-38 39 -39 42 -9 1 17 43 278 78 487 14 82 56 341 61 370 9 59 31 189 38 225
2 11 7 40 10 65 3 25 8 56 11 70 3 14 12 68 20 120 8 52 17 111 21 130 3 19
17 103 30 185 14 83 27 164 30 180 2 17 6 41 9 55 3 14 7 39 9 55 4 26 50 300
61 364 2 13 7 44 11 69 7 44 7 44 88 82 44 20 113 52 151 70 39 18 117 54 175
80 58 26 146 67 195 90 182 85 223 104 385 177 91 41 170 78 175 82 6 4 28 15
50 24 22 8 78 33 125 55 83 38 289 134 420 194 36 17 108 49 160 73 286 129
291 132 280 160 -5 14 -12 36 -14 48 -8 43 -66 207 -111 319 -237 581 -662
1096 -1195 1448 -403 267 -886 445 -1340 496 -30 3 -66 8 -80 10 -29 6 -486
15 -491 10z m506 -449 c11 -3 43 -8 70 -12 28 -4 59 -8 70 -10 59 -8 161 -29
245 -51 203 -53 520 -169 520 -191 0 -5 -10 -19 -23 -33 -17 -19 -346 -385
-392 -436 -10 -11 -61 -67 -144 -159 -104 -114 -217 -239 -231 -255 -24 -28
-136 -153 -161 -181 -80 -87 -132 -144 -193 -212 -38 -43 -78 -88 -90 -100
-12 -13 -52 -58 -91 -101 -38 -43 -81 -91 -95 -106 l-25 -28 -1183 0 c-1099 0
-1183 1 -1177 16 4 10 11 31 15 47 22 89 138 346 217 483 140 241 381 529 585
697 353 292 737 484 1158 579 124 27 143 31 295 50 96 12 584 15 630 3z m1028
-329 c310 -179 560 -396 800 -693 99 -123 210 -303 296 -480 64 -131 131 -302
131 -335 0 -20 -1 -20 -785 -20 l-785 0 6 33 c3 17 19 113 35 212 16 99 32
194 35 210 7 47 24 144 35 205 13 78 17 103 34 210 8 52 16 104 19 115 8 43
16 92 21 130 3 22 8 51 11 65 11 59 13 69 18 106 3 22 8 50 11 64 3 14 8 41
11 60 7 52 14 92 18 115 3 11 5 26 5 33 1 18 5 16 84 -30z m-3930 -1601 c7 -6
59 -66 116 -132 58 -66 110 -124 115 -130 6 -5 36 -39 66 -75 30 -35 62 -72
70 -80 25 -27 81 -91 150 -170 36 -41 67 -77 70 -80 3 -3 35 -39 70 -80 36
-41 72 -82 80 -90 8 -8 58 -64 110 -125 52 -60 97 -112 100 -115 3 -3 39 -43
80 -90 41 -47 83 -93 92 -104 20 -22 26 -13 -132 -186 -48 -52 -133 -147 -191
-210 -214 -238 -265 -294 -289 -320 -37 -40 -158 -174 -185 -207 -14 -15 -26
-25 -28 -23 -21 27 -94 155 -134 235 -109 219 -196 482 -239 725 -2 14 -6 34
-8 45 -3 11 -8 45 -11 75 -3 30 -10 89 -15 130 -8 75 -6 463 3 510 3 14 8 50
12 80 10 89 15 120 36 220 11 52 25 121 31 153 7 31 13 57 15 57 3 0 10 -6 16
-13z"/>
<path d="M6525 3781 c-33 -15 -89 -42 -125 -58 -36 -17 -135 -63 -220 -103
-85 -40 -207 -97 -270 -127 -63 -31 -176 -83 -250 -118 -243 -113 -314 -146
-395 -185 l-80 -39 497 -1 497 0 -4 -32 c-39 -296 -101 -542 -196 -768 -84
-201 -248 -471 -399 -659 -397 -492 -989 -840 -1613 -946 -51 -9 -103 -18
-117 -20 -114 -20 -475 -27 -630 -12 -578 55 -1175 327 -1588 722 -35 33 -68
62 -73 64 -8 2 -402 -172 -418 -185 -2 -2 36 -45 85 -95 344 -354 745 -605
1235 -775 98 -34 268 -80 329 -90 19 -3 37 -7 40 -9 3 -2 50 -10 105 -19 55
-9 113 -19 129 -21 160 -27 634 -27 796 -1 14 3 43 7 65 10 40 6 53 8 150 26
587 110 1168 417 1600 847 134 134 150 151 254 282 288 363 486 767 596 1215
18 78 37 159 40 181 3 23 8 52 10 65 9 44 19 132 31 255 10 113 11 374 1 480
-5 50 -8 102 -8 118 2 33 1 33 -74 -2z"/>
</g>
</svg>
