<svg xmlns="http://www.w3.org/2000/svg" viewBox="0 0 105.7 36.3" enable-background="new 0 0 105.7 36.3"><g fill-rule="evenodd"><path d="m95.1 23.7l1.9-6.7 1.1 6.7h2.4l-1.7-10.3h-2.5l-3.2 10.3h2m-16.1-3.6l-2.1-.2c-.2.8-.6 1.7-1.3 1.7-1.1 0-.8-1.7-.6-2.7.2-1 .5-3.3 1.6-3.3.8 0 .9 1.3.7 2.2l2.2-.4c.3-2.5-.6-4-2.5-4-2.4 0-3.9 2.7-4.3 5.6-.5 2.9.4 5 2.7 5 1.6-.1 3.1-1.6 3.6-3.9m4.7 3.6l-.7-4.2-1.1 1.6-.4 2.6h-2.2l1.7-10.3h2.2l-.7 4.1 2.8-4.1h2.1l-2.8 4 1.4 6.3h-2.3m10-5c-.5 2.9-2.2 5.1-4.5 5.1-2.3 0-3.3-2.3-2.8-5.1.5-3 2.2-5.5 4.5-5.5 2.4.1 3.3 2.5 2.8 5.5m-4.8.1c-.2 1-.4 2.8.7 2.8 1.1 0 1.4-1.9 1.6-2.8.2-1 .4-3.2-.7-3.2-1 0-1.4 2.2-1.6 3.2" fill="#5ea243"/><path d="m77.4 10.4h-6.1c-.3-.8-.7-1.6-1.2-2.3h12.5l-5.2 2.3m-49.1 9.7h1.2c.7 0 1.5-.1 2.2-.8.7-.6 1.2-1.8 1.3-2.7.2-1.1-.1-2.1-.7-2.7-.6-.5-1.4-.5-2.2-.5h-3.2l-1.8 10.4h2.4l.8-3.7m.4-2.2l.4-2.2h.7c.5 0 1.1.1 1 1-.2.9-.9 1.2-1.4 1.2h-.7m-6.3-4.7c2.4 0 3.2 2.5 2.7 5.5-.5 2.9-2.2 5.2-4.6 5.2-2.3 0-3.3-2.3-2.8-5.2.5-3 2.3-5.5 4.7-5.5m-.4 2.3c-1 0-1.6 2.2-1.7 3.2-.2 1-.4 2.9.7 2.9 1.1 0 1.5-1.9 1.6-2.9.2-1 .5-3.2-.6-3.2m-5.4.3h1.6l.4-2.4h-5.5l-.4 2.4h1.6l-1.4 8h2.3l1.4-8m-12 5c0 2.1 1.5 3.1 3.1 3.1 1.6 0 3.4-.6 3.8-3.1.2-1-.1-2-.7-2.5-.6-.5-1.4-.7-2-1-.3-.1-.8-.4-.7-.9.1-.6.6-.9 1.1-.9.4 0 1 .3 1 1.1l2.1-.8c-.1-1.5-1.4-2.4-2.8-2.4-1 0-1.9.4-2.5 1-.6.6-1 1.4-1.1 2.2-.3 1.9 1.2 3 2.6 3.3.3.1.9.4.8 1-.1.6-.7.6-1 .6-.7 0-1.1-.3-1.2-1.2l-2.5.5m48-20.6c8.3 0 15.4 5.8 17.4 13.5l-12.6 5.8-2.3 14-6.6-7.5 2.2-1 2.8 3.2 2.7-16.6-3.8 4.2h-9.9l6.6 7.5-11.4 5.2c-.1-.1-.2-.3-.3-.4-1.8-2.8-2.9-6.2-2.9-9.8.1-10 8.1-18.1 18.1-18.1m-14.9 13.5c0 .2-.3 1.3-.3 1.5-.2 1-.3 2-.3 3 0 2.9.8 5.7 2.2 8 .1.1.1.2.2.3l4.8-5.3-6.6-7.5m21.9-9.4c-.5-.3-1.1-.5-1.7-.7-1.7-.6-3.5-.9-5.3-.9-6.8 0-12.6 4.3-14.7 10.4 0 .1-.1.3-.1.4h1.8 11.7l8.3-9.2m7.5 8.4c-1.2-3.3-3.6-6.1-6.6-7.9-.2-.1-.5-.3-.7-.4l-1.5 9h9c0-.2-.1-.4-.2-.7m-61-4.6h29c-.4.8-.8 1.5-1.2 2.3h-27.8c-.3 0-.6.1-.8.3-.2.2-.4.6-.4 1l-2.2 14c0 0 0 0 0 .1 0 .3.1.5.3.7.2.2.5.4.8.4 0 0 .1 0 .1 0h30.5c.4.8.8 1.6 1.3 2.3h-31.8c-.1 0-.2 0-.3 0-.9-.1-1.7-.5-2.3-1-.6-.6-1-1.4-1-2.4 0-.1 0-.2 0-.3l2.2-14c.1-1 .5-1.8 1.1-2.5.7-.5 1.5-.9 2.5-.9" fill="#c00d19"/><path d="m70.4 16c0 .1 0 .2 0 .3.1.6.1 1.3.1 1.9 0 9.9-8 18-18 18-5.3 0-10.1-2.3-13.3-5.9l2.4-1.1c2.8 2.8 6.7 4.6 11 4.6 4.6 0 8.8-2 11.6-5.2 2.1-2.4 3.5-5.4 3.8-8.8h-5.7l8.1-3.8m28.9-7.9h-11.8l-5.2 2.3h16.7c.9 0 1.5.7 1.6 1.5l2.1 13.2c.1.6.1 1-.1 1.3-.2.4-.8.5-1.5.5h-30.3c-.4.8-.8 1.6-1.3 2.3h32.1c.1 0 .2 0 .3 0 .9-.1 1.7-.4 2.3-1 1.1-1.1 1-2.5.8-3.4l-2.2-13.3c0-1.8-1.5-3.4-3.5-3.4" fill="#5ea243"/></g></svg>